<svg width="287" height="90" viewBox="0 0 287 90" fill="none" xmlns="http://www.w3.org/2000/svg">
<rect x="54.6904" y="19" width="169" height="2" fill="#4B7FFB"/>
<g clip-path="url(#clip0_141_1764)">
<rect x="14" width="40" height="40" rx="20" fill="#4B7FFB"/>
<path d="M28 20L31.9953 24L40 16" stroke="white" stroke-width="1.5" stroke-linecap="round" stroke-linejoin="round"/>
</g>
<path d="M4.49219 77.3047L7.53125 71.5781H8.96094L5.15625 78.5703V83H3.82812V78.6328L0.015625 71.5781H1.46875L4.49219 77.3047ZM17.7188 78.7031C17.7188 79.4062 17.6276 80.0339 17.4453 80.5859C17.263 81.138 17 81.6042 16.6562 81.9844C16.3125 82.3646 15.8958 82.6562 15.4062 82.8594C14.9219 83.0573 14.3724 83.1562 13.7578 83.1562C13.1849 83.1562 12.6589 83.0573 12.1797 82.8594C11.7057 82.6562 11.2943 82.3646 10.9453 81.9844C10.6016 81.6042 10.3333 81.138 10.1406 80.5859C9.95312 80.0339 9.85938 79.4062 9.85938 78.7031C9.85938 77.7656 10.0182 76.9688 10.3359 76.3125C10.6536 75.651 11.1068 75.1484 11.6953 74.8047C12.2891 74.4557 12.9948 74.2812 13.8125 74.2812C14.5938 74.2812 15.276 74.4557 15.8594 74.8047C16.4479 75.1536 16.9036 75.6589 17.2266 76.3203C17.5547 76.9766 17.7188 77.7708 17.7188 78.7031ZM11.2031 78.7031C11.2031 79.3906 11.2943 79.987 11.4766 80.4922C11.6589 80.9974 11.9401 81.388 12.3203 81.6641C12.7005 81.9401 13.1901 82.0781 13.7891 82.0781C14.3828 82.0781 14.8698 81.9401 15.25 81.6641C15.6354 81.388 15.9193 80.9974 16.1016 80.4922C16.2839 79.987 16.375 79.3906 16.375 78.7031C16.375 78.0208 16.2839 77.4323 16.1016 76.9375C15.9193 76.4375 15.638 76.0521 15.2578 75.7812C14.8776 75.5104 14.3854 75.375 13.7812 75.375C12.8906 75.375 12.237 75.6693 11.8203 76.2578C11.4089 76.8464 11.2031 77.6615 11.2031 78.7031ZM27.0312 74.4375V83H25.9688L25.7812 81.7969H25.7109C25.5339 82.0938 25.3047 82.3438 25.0234 82.5469C24.7422 82.75 24.4245 82.901 24.0703 83C23.7214 83.1042 23.349 83.1562 22.9531 83.1562C22.276 83.1562 21.7083 83.0469 21.25 82.8281C20.7917 82.6094 20.4453 82.2708 20.2109 81.8125C19.9818 81.3542 19.8672 80.7656 19.8672 80.0469V74.4375H21.1797V79.9531C21.1797 80.6667 21.3411 81.2005 21.6641 81.5547C21.987 81.9036 22.4792 82.0781 23.1406 82.0781C23.776 82.0781 24.2812 81.9583 24.6562 81.7188C25.0365 81.4792 25.3099 81.1276 25.4766 80.6641C25.6432 80.1953 25.7266 79.6224 25.7266 78.9453V74.4375H27.0312ZM33.6641 74.2812C33.8359 74.2812 34.0156 74.2917 34.2031 74.3125C34.3906 74.3281 34.5573 74.3516 34.7031 74.3828L34.5391 75.5859C34.3984 75.5495 34.2422 75.5208 34.0703 75.5C33.8984 75.4792 33.737 75.4688 33.5859 75.4688C33.2422 75.4688 32.9167 75.5391 32.6094 75.6797C32.3073 75.8151 32.0417 76.013 31.8125 76.2734C31.5833 76.5286 31.4036 76.8385 31.2734 77.2031C31.1432 77.5625 31.0781 77.9635 31.0781 78.4062V83H29.7734V74.4375H30.8516L30.9922 76.0156H31.0469C31.224 75.6979 31.4375 75.4089 31.6875 75.1484C31.9375 74.8828 32.2266 74.6719 32.5547 74.5156C32.888 74.3594 33.2578 74.2812 33.6641 74.2812ZM41.7734 74.4375V83H40.4766V74.4375H41.7734ZM41.1406 71.2344C41.3542 71.2344 41.5365 71.3047 41.6875 71.4453C41.8438 71.5807 41.9219 71.7943 41.9219 72.0859C41.9219 72.3724 41.8438 72.5859 41.6875 72.7266C41.5365 72.8672 41.3542 72.9375 41.1406 72.9375C40.9167 72.9375 40.7292 72.8672 40.5781 72.7266C40.4323 72.5859 40.3594 72.3724 40.3594 72.0859C40.3594 71.7943 40.4323 71.5807 40.5781 71.4453C40.7292 71.3047 40.9167 71.2344 41.1406 71.2344ZM48.5781 74.2812C49.5938 74.2812 50.362 74.5312 50.8828 75.0312C51.4036 75.526 51.6641 76.3229 51.6641 77.4219V83H50.3828V77.5078C50.3828 76.7943 50.2188 76.2604 49.8906 75.9062C49.5677 75.5521 49.0703 75.375 48.3984 75.375C47.4505 75.375 46.7839 75.6432 46.3984 76.1797C46.013 76.7161 45.8203 77.4948 45.8203 78.5156V83H44.5234V74.4375H45.5703L45.7656 75.6719H45.8359C46.0182 75.3698 46.25 75.1172 46.5312 74.9141C46.8125 74.7057 47.1276 74.5495 47.4766 74.4453C47.8255 74.3359 48.1927 74.2812 48.5781 74.2812ZM58.1484 75.4531H56.0156V83H54.7188V75.4531H53.2031V74.8281L54.7188 74.3984V73.8281C54.7188 73.1094 54.8255 72.526 55.0391 72.0781C55.2526 71.625 55.5625 71.2917 55.9688 71.0781C56.375 70.8646 56.8698 70.7578 57.4531 70.7578C57.7812 70.7578 58.0807 70.7865 58.3516 70.8438C58.6276 70.901 58.8698 70.9661 59.0781 71.0391L58.7422 72.0625C58.5651 72.0052 58.3646 71.9531 58.1406 71.9062C57.9219 71.8542 57.6979 71.8281 57.4688 71.8281C56.974 71.8281 56.6068 71.9896 56.3672 72.3125C56.1328 72.6302 56.0156 73.1302 56.0156 73.8125V74.4375H58.1484V75.4531ZM67.1094 78.7031C67.1094 79.4062 67.0182 80.0339 66.8359 80.5859C66.6536 81.138 66.3906 81.6042 66.0469 81.9844C65.7031 82.3646 65.2865 82.6562 64.7969 82.8594C64.3125 83.0573 63.763 83.1562 63.1484 83.1562C62.5755 83.1562 62.0495 83.0573 61.5703 82.8594C61.0964 82.6562 60.6849 82.3646 60.3359 81.9844C59.9922 81.6042 59.724 81.138 59.5312 80.5859C59.3438 80.0339 59.25 79.4062 59.25 78.7031C59.25 77.7656 59.4089 76.9688 59.7266 76.3125C60.0443 75.651 60.4974 75.1484 61.0859 74.8047C61.6797 74.4557 62.3854 74.2812 63.2031 74.2812C63.9844 74.2812 64.6667 74.4557 65.25 74.8047C65.8385 75.1536 66.2943 75.6589 66.6172 76.3203C66.9453 76.9766 67.1094 77.7708 67.1094 78.7031ZM60.5938 78.7031C60.5938 79.3906 60.6849 79.987 60.8672 80.4922C61.0495 80.9974 61.3307 81.388 61.7109 81.6641C62.0911 81.9401 62.5807 82.0781 63.1797 82.0781C63.7734 82.0781 64.2604 81.9401 64.6406 81.6641C65.026 81.388 65.3099 80.9974 65.4922 80.4922C65.6745 79.987 65.7656 79.3906 65.7656 78.7031C65.7656 78.0208 65.6745 77.4323 65.4922 76.9375C65.3099 76.4375 65.0286 76.0521 64.6484 75.7812C64.2682 75.5104 63.776 75.375 63.1719 75.375C62.2812 75.375 61.6276 75.6693 61.2109 76.2578C60.7995 76.8464 60.5938 77.6615 60.5938 78.7031Z" fill="#272D2C"/>
<g clip-path="url(#clip1_141_1764)">
<rect x="225.486" width="40" height="40" rx="20" fill="#4B7FFB"/>
<path d="M239.486 20L243.482 24L251.486 16" stroke="white" stroke-width="1.5" stroke-linecap="round" stroke-linejoin="round"/>
</g>
<path d="M212.557 79.9609C212.557 80.638 212.387 81.2161 212.049 81.6953C211.715 82.1693 211.247 82.5312 210.643 82.7812C210.038 83.0312 209.327 83.1562 208.51 83.1562C208.077 83.1562 207.669 83.1354 207.283 83.0938C206.898 83.0521 206.544 82.9922 206.221 82.9141C205.898 82.8359 205.614 82.7396 205.369 82.625V81.3516C205.76 81.513 206.236 81.6641 206.799 81.8047C207.361 81.9401 207.95 82.0078 208.564 82.0078C209.137 82.0078 209.622 81.9323 210.018 81.7812C210.413 81.625 210.713 81.4036 210.916 81.1172C211.124 80.8255 211.229 80.4766 211.229 80.0703C211.229 79.6797 211.143 79.3542 210.971 79.0938C210.799 78.8281 210.512 78.5885 210.111 78.375C209.715 78.1562 209.174 77.9245 208.486 77.6797C208.002 77.5078 207.575 77.3203 207.205 77.1172C206.835 76.9089 206.525 76.6745 206.275 76.4141C206.025 76.1536 205.835 75.8516 205.705 75.5078C205.58 75.1641 205.518 74.7708 205.518 74.3281C205.518 73.7188 205.671 73.1979 205.979 72.7656C206.291 72.3281 206.721 71.9948 207.268 71.7656C207.82 71.5312 208.452 71.4141 209.166 71.4141C209.775 71.4141 210.338 71.4714 210.854 71.5859C211.374 71.7005 211.851 71.8542 212.283 72.0469L211.869 73.1875C211.458 73.0156 211.02 72.8724 210.557 72.7578C210.098 72.6432 209.624 72.5859 209.135 72.5859C208.645 72.5859 208.231 72.6589 207.893 72.8047C207.559 72.9453 207.304 73.1458 207.127 73.4062C206.95 73.6667 206.861 73.9766 206.861 74.3359C206.861 74.737 206.945 75.0703 207.111 75.3359C207.283 75.6016 207.554 75.8385 207.924 76.0469C208.299 76.25 208.794 76.4635 209.408 76.6875C210.08 76.9323 210.65 77.1927 211.119 77.4688C211.588 77.7396 211.945 78.0729 212.189 78.4688C212.434 78.8594 212.557 79.3568 212.557 79.9609ZM217.994 74.2812C218.723 74.2812 219.348 74.4427 219.869 74.7656C220.39 75.0885 220.788 75.5417 221.064 76.125C221.34 76.7031 221.479 77.3802 221.479 78.1562V78.9609H215.564C215.58 79.9661 215.83 80.7318 216.314 81.2578C216.799 81.7839 217.481 82.0469 218.361 82.0469C218.903 82.0469 219.382 81.9974 219.799 81.8984C220.215 81.7995 220.648 81.6536 221.096 81.4609V82.6016C220.663 82.7943 220.234 82.9349 219.807 83.0234C219.385 83.112 218.885 83.1562 218.307 83.1562C217.484 83.1562 216.765 82.9896 216.15 82.6562C215.541 82.3177 215.067 81.8229 214.729 81.1719C214.39 80.5208 214.221 79.724 214.221 78.7812C214.221 77.8594 214.374 77.0625 214.682 76.3906C214.994 75.7135 215.432 75.1927 215.994 74.8281C216.562 74.4635 217.229 74.2812 217.994 74.2812ZM217.979 75.3438C217.286 75.3438 216.734 75.5703 216.322 76.0234C215.911 76.4766 215.666 77.1094 215.588 77.9219H220.119C220.114 77.4115 220.033 76.9635 219.877 76.5781C219.726 76.1875 219.494 75.8854 219.182 75.6719C218.869 75.4531 218.468 75.3438 217.979 75.3438ZM224.986 83H223.682V70.8438H224.986V83ZM231.025 74.2812C231.755 74.2812 232.38 74.4427 232.9 74.7656C233.421 75.0885 233.82 75.5417 234.096 76.125C234.372 76.7031 234.51 77.3802 234.51 78.1562V78.9609H228.596C228.611 79.9661 228.861 80.7318 229.346 81.2578C229.83 81.7839 230.512 82.0469 231.393 82.0469C231.934 82.0469 232.413 81.9974 232.83 81.8984C233.247 81.7995 233.679 81.6536 234.127 81.4609V82.6016C233.695 82.7943 233.265 82.9349 232.838 83.0234C232.416 83.112 231.916 83.1562 231.338 83.1562C230.515 83.1562 229.796 82.9896 229.182 82.6562C228.572 82.3177 228.098 81.8229 227.76 81.1719C227.421 80.5208 227.252 79.724 227.252 78.7812C227.252 77.8594 227.406 77.0625 227.713 76.3906C228.025 75.7135 228.463 75.1927 229.025 74.8281C229.593 74.4635 230.26 74.2812 231.025 74.2812ZM231.01 75.3438C230.317 75.3438 229.765 75.5703 229.354 76.0234C228.942 76.4766 228.697 77.1094 228.619 77.9219H233.15C233.145 77.4115 233.064 76.9635 232.908 76.5781C232.757 76.1875 232.525 75.8854 232.213 75.6719C231.9 75.4531 231.499 75.3438 231.01 75.3438ZM240.143 83.1562C239.372 83.1562 238.692 82.9974 238.104 82.6797C237.515 82.362 237.057 81.8776 236.729 81.2266C236.4 80.5755 236.236 79.7552 236.236 78.7656C236.236 77.7292 236.408 76.8828 236.752 76.2266C237.101 75.5651 237.58 75.0755 238.189 74.7578C238.799 74.4401 239.492 74.2812 240.268 74.2812C240.695 74.2812 241.106 74.3255 241.502 74.4141C241.903 74.4974 242.231 74.6042 242.486 74.7344L242.096 75.8203C241.835 75.7161 241.533 75.6224 241.189 75.5391C240.851 75.4557 240.533 75.4141 240.236 75.4141C239.643 75.4141 239.148 75.5417 238.752 75.7969C238.361 76.0521 238.067 76.4271 237.869 76.9219C237.676 77.4167 237.58 78.026 237.58 78.75C237.58 79.4427 237.674 80.0339 237.861 80.5234C238.054 81.013 238.338 81.388 238.713 81.6484C239.093 81.9036 239.567 82.0312 240.135 82.0312C240.588 82.0312 240.997 81.9844 241.361 81.8906C241.726 81.7917 242.057 81.6771 242.354 81.5469V82.7031C242.067 82.849 241.747 82.9609 241.393 83.0391C241.044 83.1172 240.627 83.1562 240.143 83.1562ZM247.15 82.0938C247.364 82.0938 247.583 82.0755 247.807 82.0391C248.031 82.0026 248.213 81.9583 248.354 81.9062V82.9141C248.202 82.9818 247.992 83.0391 247.721 83.0859C247.455 83.1328 247.195 83.1562 246.939 83.1562C246.486 83.1562 246.075 83.0781 245.705 82.9219C245.335 82.7604 245.038 82.4896 244.814 82.1094C244.596 81.7292 244.486 81.2031 244.486 80.5312V75.4531H243.268V74.8203L244.494 74.3125L245.01 72.4531H245.791V74.4375H248.299V75.4531H245.791V80.4922C245.791 81.0286 245.913 81.4297 246.158 81.6953C246.408 81.9609 246.739 82.0938 247.15 82.0938ZM257.01 82.0938C257.223 82.0938 257.442 82.0755 257.666 82.0391C257.89 82.0026 258.072 81.9583 258.213 81.9062V82.9141C258.062 82.9818 257.851 83.0391 257.58 83.0859C257.314 83.1328 257.054 83.1562 256.799 83.1562C256.346 83.1562 255.934 83.0781 255.564 82.9219C255.195 82.7604 254.898 82.4896 254.674 82.1094C254.455 81.7292 254.346 81.2031 254.346 80.5312V75.4531H253.127V74.8203L254.354 74.3125L254.869 72.4531H255.65V74.4375H258.158V75.4531H255.65V80.4922C255.65 81.0286 255.773 81.4297 256.018 81.6953C256.268 81.9609 256.598 82.0938 257.01 82.0938ZM261.244 74.4375V83H259.947V74.4375H261.244ZM260.611 71.2344C260.825 71.2344 261.007 71.3047 261.158 71.4453C261.314 71.5807 261.393 71.7943 261.393 72.0859C261.393 72.3724 261.314 72.5859 261.158 72.7266C261.007 72.8672 260.825 72.9375 260.611 72.9375C260.387 72.9375 260.2 72.8672 260.049 72.7266C259.903 72.5859 259.83 72.3724 259.83 72.0859C259.83 71.7943 259.903 71.5807 260.049 71.4453C260.2 71.3047 260.387 71.2344 260.611 71.2344ZM273.291 74.2812C274.234 74.2812 274.945 74.5286 275.424 75.0234C275.903 75.513 276.143 76.3021 276.143 77.3906V83H274.861V77.4531C274.861 76.7604 274.71 76.2422 274.408 75.8984C274.111 75.5495 273.669 75.375 273.08 75.375C272.252 75.375 271.65 75.6146 271.275 76.0938C270.9 76.5729 270.713 77.2786 270.713 78.2109V83H269.424V77.4531C269.424 76.9896 269.356 76.6042 269.221 76.2969C269.09 75.9896 268.893 75.7604 268.627 75.6094C268.367 75.4531 268.036 75.375 267.635 75.375C267.067 75.375 266.611 75.4922 266.268 75.7266C265.924 75.9609 265.674 76.3099 265.518 76.7734C265.367 77.2318 265.291 77.7969 265.291 78.4688V83H263.994V74.4375H265.041L265.236 75.6484H265.307C265.479 75.3516 265.695 75.1016 265.955 74.8984C266.215 74.6953 266.507 74.5417 266.83 74.4375C267.153 74.3333 267.497 74.2812 267.861 74.2812C268.512 74.2812 269.057 74.4036 269.494 74.6484C269.937 74.888 270.257 75.2552 270.455 75.75H270.525C270.807 75.2552 271.192 74.888 271.682 74.6484C272.171 74.4036 272.708 74.2812 273.291 74.2812ZM282.104 74.2812C282.833 74.2812 283.458 74.4427 283.979 74.7656C284.499 75.0885 284.898 75.5417 285.174 76.125C285.45 76.7031 285.588 77.3802 285.588 78.1562V78.9609H279.674C279.689 79.9661 279.939 80.7318 280.424 81.2578C280.908 81.7839 281.59 82.0469 282.471 82.0469C283.012 82.0469 283.492 81.9974 283.908 81.8984C284.325 81.7995 284.757 81.6536 285.205 81.4609V82.6016C284.773 82.7943 284.343 82.9349 283.916 83.0234C283.494 83.112 282.994 83.1562 282.416 83.1562C281.593 83.1562 280.874 82.9896 280.26 82.6562C279.65 82.3177 279.176 81.8229 278.838 81.1719C278.499 80.5208 278.33 79.724 278.33 78.7812C278.33 77.8594 278.484 77.0625 278.791 76.3906C279.104 75.7135 279.541 75.1927 280.104 74.8281C280.671 74.4635 281.338 74.2812 282.104 74.2812ZM282.088 75.3438C281.395 75.3438 280.843 75.5703 280.432 76.0234C280.02 76.4766 279.775 77.1094 279.697 77.9219H284.229C284.223 77.4115 284.143 76.9635 283.986 76.5781C283.835 76.1875 283.604 75.8854 283.291 75.6719C282.979 75.4531 282.577 75.3438 282.088 75.3438Z" fill="#272D2C"/>
<defs>
<clipPath id="clip0_141_1764">
<rect x="14" width="40" height="40" rx="20" fill="white"/>
</clipPath>
<clipPath id="clip1_141_1764">
<rect x="225.486" width="40" height="40" rx="20" fill="white"/>
</clipPath>
</defs>
</svg>
