<svg width="305" height="90" viewBox="0 0 305 90" fill="none" xmlns="http://www.w3.org/2000/svg">
<rect x="54.6904" y="19" width="169" height="2" fill="#4B7FFB"/>
<g clip-path="url(#clip0_141_1711)">
<rect x="14" width="40" height="40" rx="20" fill="#4B7FFB"/>
<path d="M28 20L31.9953 24L40 16" stroke="white" stroke-width="1.5" stroke-linecap="round" stroke-linejoin="round"/>
</g>
<path d="M4.78125 77.3047L7.82031 71.5781H9.25L5.44531 78.5703V83H4.11719V78.6328L0.304688 71.5781H1.75781L4.78125 77.3047ZM18.0078 78.7031C18.0078 79.4062 17.9167 80.0339 17.7344 80.5859C17.5521 81.138 17.2891 81.6042 16.9453 81.9844C16.6016 82.3646 16.1849 82.6562 15.6953 82.8594C15.2109 83.0573 14.6615 83.1562 14.0469 83.1562C13.474 83.1562 12.9479 83.0573 12.4688 82.8594C11.9948 82.6562 11.5833 82.3646 11.2344 81.9844C10.8906 81.6042 10.6224 81.138 10.4297 80.5859C10.2422 80.0339 10.1484 79.4062 10.1484 78.7031C10.1484 77.7656 10.3073 76.9688 10.625 76.3125C10.9427 75.651 11.3958 75.1484 11.9844 74.8047C12.5781 74.4557 13.2839 74.2812 14.1016 74.2812C14.8828 74.2812 15.5651 74.4557 16.1484 74.8047C16.737 75.1536 17.1927 75.6589 17.5156 76.3203C17.8438 76.9766 18.0078 77.7708 18.0078 78.7031ZM11.4922 78.7031C11.4922 79.3906 11.5833 79.987 11.7656 80.4922C11.9479 80.9974 12.2292 81.388 12.6094 81.6641C12.9896 81.9401 13.4792 82.0781 14.0781 82.0781C14.6719 82.0781 15.1589 81.9401 15.5391 81.6641C15.9245 81.388 16.2083 80.9974 16.3906 80.4922C16.5729 79.987 16.6641 79.3906 16.6641 78.7031C16.6641 78.0208 16.5729 77.4323 16.3906 76.9375C16.2083 76.4375 15.9271 76.0521 15.5469 75.7812C15.1667 75.5104 14.6745 75.375 14.0703 75.375C13.1797 75.375 12.526 75.6693 12.1094 76.2578C11.6979 76.8464 11.4922 77.6615 11.4922 78.7031ZM27.3203 74.4375V83H26.2578L26.0703 81.7969H26C25.8229 82.0938 25.5938 82.3438 25.3125 82.5469C25.0312 82.75 24.7135 82.901 24.3594 83C24.0104 83.1042 23.638 83.1562 23.2422 83.1562C22.5651 83.1562 21.9974 83.0469 21.5391 82.8281C21.0807 82.6094 20.7344 82.2708 20.5 81.8125C20.2708 81.3542 20.1562 80.7656 20.1562 80.0469V74.4375H21.4688V79.9531C21.4688 80.6667 21.6302 81.2005 21.9531 81.5547C22.276 81.9036 22.7682 82.0781 23.4297 82.0781C24.0651 82.0781 24.5703 81.9583 24.9453 81.7188C25.3255 81.4792 25.599 81.1276 25.7656 80.6641C25.9323 80.1953 26.0156 79.6224 26.0156 78.9453V74.4375H27.3203ZM33.9531 74.2812C34.125 74.2812 34.3047 74.2917 34.4922 74.3125C34.6797 74.3281 34.8464 74.3516 34.9922 74.3828L34.8281 75.5859C34.6875 75.5495 34.5312 75.5208 34.3594 75.5C34.1875 75.4792 34.026 75.4688 33.875 75.4688C33.5312 75.4688 33.2057 75.5391 32.8984 75.6797C32.5964 75.8151 32.3307 76.013 32.1016 76.2734C31.8724 76.5286 31.6927 76.8385 31.5625 77.2031C31.4323 77.5625 31.3672 77.9635 31.3672 78.4062V83H30.0625V74.4375H31.1406L31.2812 76.0156H31.3359C31.513 75.6979 31.7266 75.4089 31.9766 75.1484C32.2266 74.8828 32.5156 74.6719 32.8438 74.5156C33.1771 74.3594 33.5469 74.2812 33.9531 74.2812ZM40.9609 83V71.5781H42.2891V83H40.9609ZM49.2891 74.2812C50.3047 74.2812 51.0729 74.5312 51.5938 75.0312C52.1146 75.526 52.375 76.3229 52.375 77.4219V83H51.0938V77.5078C51.0938 76.7943 50.9297 76.2604 50.6016 75.9062C50.2786 75.5521 49.7812 75.375 49.1094 75.375C48.1615 75.375 47.4948 75.6432 47.1094 76.1797C46.724 76.7161 46.5312 77.4948 46.5312 78.5156V83H45.2344V74.4375H46.2812L46.4766 75.6719H46.5469C46.7292 75.3698 46.9609 75.1172 47.2422 74.9141C47.5234 74.7057 47.8385 74.5495 48.1875 74.4453C48.5365 74.3359 48.9036 74.2812 49.2891 74.2812ZM58.8594 75.4531H56.7266V83H55.4297V75.4531H53.9141V74.8281L55.4297 74.3984V73.8281C55.4297 73.1094 55.5365 72.526 55.75 72.0781C55.9635 71.625 56.2734 71.2917 56.6797 71.0781C57.0859 70.8646 57.5807 70.7578 58.1641 70.7578C58.4922 70.7578 58.7917 70.7865 59.0625 70.8438C59.3385 70.901 59.5807 70.9661 59.7891 71.0391L59.4531 72.0625C59.276 72.0052 59.0755 71.9531 58.8516 71.9062C58.6328 71.8542 58.4089 71.8281 58.1797 71.8281C57.6849 71.8281 57.3177 71.9896 57.0781 72.3125C56.8438 72.6302 56.7266 73.1302 56.7266 73.8125V74.4375H58.8594V75.4531ZM67.8203 78.7031C67.8203 79.4062 67.7292 80.0339 67.5469 80.5859C67.3646 81.138 67.1016 81.6042 66.7578 81.9844C66.4141 82.3646 65.9974 82.6562 65.5078 82.8594C65.0234 83.0573 64.474 83.1562 63.8594 83.1562C63.2865 83.1562 62.7604 83.0573 62.2812 82.8594C61.8073 82.6562 61.3958 82.3646 61.0469 81.9844C60.7031 81.6042 60.4349 81.138 60.2422 80.5859C60.0547 80.0339 59.9609 79.4062 59.9609 78.7031C59.9609 77.7656 60.1198 76.9688 60.4375 76.3125C60.7552 75.651 61.2083 75.1484 61.7969 74.8047C62.3906 74.4557 63.0964 74.2812 63.9141 74.2812C64.6953 74.2812 65.3776 74.4557 65.9609 74.8047C66.5495 75.1536 67.0052 75.6589 67.3281 76.3203C67.6562 76.9766 67.8203 77.7708 67.8203 78.7031ZM61.3047 78.7031C61.3047 79.3906 61.3958 79.987 61.5781 80.4922C61.7604 80.9974 62.0417 81.388 62.4219 81.6641C62.8021 81.9401 63.2917 82.0781 63.8906 82.0781C64.4844 82.0781 64.9714 81.9401 65.3516 81.6641C65.737 81.388 66.0208 80.9974 66.2031 80.4922C66.3854 79.987 66.4766 79.3906 66.4766 78.7031C66.4766 78.0208 66.3854 77.4323 66.2031 76.9375C66.0208 76.4375 65.7396 76.0521 65.3594 75.7812C64.9792 75.5104 64.487 75.375 63.8828 75.375C62.9922 75.375 62.3385 75.6693 61.9219 76.2578C61.5104 76.8464 61.3047 77.6615 61.3047 78.7031Z" fill="#272D2C"/>
<rect x="235.486" y="1" width="38" height="38" rx="19" fill="#F4F7F7"/>
<circle cx="254.486" cy="20" r="6" fill="#4B7FFB"/>
<rect x="235.486" y="1" width="38" height="38" rx="19" stroke="#4B7FFB" stroke-width="2"/>
<path d="M211.346 72.0078C210.799 72.0078 210.309 72.1068 209.877 72.3047C209.45 72.5026 209.088 72.7891 208.791 73.1641C208.494 73.5339 208.268 73.9844 208.111 74.5156C207.955 75.0417 207.877 75.6354 207.877 76.2969C207.877 77.1823 208.002 77.9453 208.252 78.5859C208.502 79.2214 208.882 79.7109 209.393 80.0547C209.903 80.3932 210.549 80.5625 211.33 80.5625C211.814 80.5625 212.286 80.5156 212.744 80.4219C213.202 80.3281 213.676 80.2005 214.166 80.0391V81.6328C213.702 81.8151 213.234 81.9479 212.76 82.0312C212.286 82.1146 211.739 82.1562 211.119 82.1562C209.952 82.1562 208.984 81.9141 208.213 81.4297C207.447 80.9453 206.874 80.263 206.494 79.3828C206.119 78.5026 205.932 77.4714 205.932 76.2891C205.932 75.4245 206.051 74.6328 206.291 73.9141C206.531 73.1953 206.88 72.5755 207.338 72.0547C207.796 71.5286 208.361 71.125 209.033 70.8438C209.71 70.5573 210.484 70.4141 211.354 70.4141C211.926 70.4141 212.489 70.4792 213.041 70.6094C213.598 70.7344 214.114 70.9141 214.588 71.1484L213.932 72.6953C213.536 72.5078 213.122 72.3464 212.689 72.2109C212.257 72.0755 211.809 72.0078 211.346 72.0078ZM218.268 69.8438V72.8984C218.268 73.2161 218.257 73.526 218.236 73.8281C218.221 74.1302 218.202 74.3646 218.182 74.5312H218.283C218.465 74.2292 218.689 73.9818 218.955 73.7891C219.221 73.5911 219.518 73.4427 219.846 73.3438C220.179 73.2448 220.533 73.1953 220.908 73.1953C221.57 73.1953 222.132 73.3073 222.596 73.5312C223.059 73.75 223.413 74.0911 223.658 74.5547C223.908 75.0182 224.033 75.6198 224.033 76.3594V82H222.197V76.7031C222.197 76.0312 222.059 75.5286 221.783 75.1953C221.507 74.8568 221.08 74.6875 220.502 74.6875C219.945 74.6875 219.502 74.8047 219.174 75.0391C218.851 75.2682 218.619 75.6094 218.479 76.0625C218.338 76.5104 218.268 77.0573 218.268 77.7031V82H216.432V69.8438H218.268ZM234.26 77.6562C234.26 78.375 234.166 79.013 233.979 79.5703C233.791 80.1276 233.518 80.599 233.158 80.9844C232.799 81.3646 232.367 81.6562 231.861 81.8594C231.356 82.0573 230.786 82.1562 230.15 82.1562C229.557 82.1562 229.012 82.0573 228.518 81.8594C228.023 81.6562 227.593 81.3646 227.229 80.9844C226.869 80.599 226.59 80.1276 226.393 79.5703C226.195 79.013 226.096 78.375 226.096 77.6562C226.096 76.7031 226.26 75.8958 226.588 75.2344C226.921 74.5677 227.395 74.0599 228.01 73.7109C228.624 73.362 229.356 73.1875 230.205 73.1875C231.002 73.1875 231.705 73.362 232.314 73.7109C232.924 74.0599 233.4 74.5677 233.744 75.2344C234.088 75.901 234.26 76.7083 234.26 77.6562ZM227.986 77.6562C227.986 78.2865 228.062 78.8255 228.213 79.2734C228.369 79.7214 228.609 80.0651 228.932 80.3047C229.255 80.5391 229.671 80.6562 230.182 80.6562C230.692 80.6562 231.109 80.5391 231.432 80.3047C231.755 80.0651 231.992 79.7214 232.143 79.2734C232.294 78.8255 232.369 78.2865 232.369 77.6562C232.369 77.026 232.294 76.4922 232.143 76.0547C231.992 75.612 231.755 75.276 231.432 75.0469C231.109 74.8125 230.689 74.6953 230.174 74.6953C229.413 74.6953 228.859 74.9505 228.51 75.4609C228.161 75.9714 227.986 76.7031 227.986 77.6562ZM244.025 77.6562C244.025 78.375 243.932 79.013 243.744 79.5703C243.557 80.1276 243.283 80.599 242.924 80.9844C242.564 81.3646 242.132 81.6562 241.627 81.8594C241.122 82.0573 240.551 82.1562 239.916 82.1562C239.322 82.1562 238.778 82.0573 238.283 81.8594C237.788 81.6562 237.359 81.3646 236.994 80.9844C236.635 80.599 236.356 80.1276 236.158 79.5703C235.96 79.013 235.861 78.375 235.861 77.6562C235.861 76.7031 236.025 75.8958 236.354 75.2344C236.687 74.5677 237.161 74.0599 237.775 73.7109C238.39 73.362 239.122 73.1875 239.971 73.1875C240.768 73.1875 241.471 73.362 242.08 73.7109C242.689 74.0599 243.166 74.5677 243.51 75.2344C243.854 75.901 244.025 76.7083 244.025 77.6562ZM237.752 77.6562C237.752 78.2865 237.827 78.8255 237.979 79.2734C238.135 79.7214 238.374 80.0651 238.697 80.3047C239.02 80.5391 239.437 80.6562 239.947 80.6562C240.458 80.6562 240.874 80.5391 241.197 80.3047C241.52 80.0651 241.757 79.7214 241.908 79.2734C242.059 78.8255 242.135 78.2865 242.135 77.6562C242.135 77.026 242.059 76.4922 241.908 76.0547C241.757 75.612 241.52 75.276 241.197 75.0469C240.874 74.8125 240.455 74.6953 239.939 74.6953C239.179 74.6953 238.624 74.9505 238.275 75.4609C237.926 75.9714 237.752 76.7031 237.752 77.6562ZM251.947 79.5312C251.947 80.099 251.809 80.5781 251.533 80.9688C251.257 81.3594 250.854 81.6562 250.322 81.8594C249.796 82.0573 249.15 82.1562 248.385 82.1562C247.781 82.1562 247.26 82.112 246.822 82.0234C246.39 81.9401 245.981 81.8099 245.596 81.6328V80.0469C246.007 80.2396 246.468 80.4062 246.979 80.5469C247.494 80.6875 247.981 80.7578 248.439 80.7578C249.044 80.7578 249.479 80.6641 249.744 80.4766C250.01 80.2839 250.143 80.0286 250.143 79.7109C250.143 79.5234 250.088 79.3568 249.979 79.2109C249.874 79.0599 249.676 78.9062 249.385 78.75C249.098 78.5885 248.676 78.3958 248.119 78.1719C247.572 77.9531 247.111 77.7344 246.736 77.5156C246.361 77.2969 246.077 77.0339 245.885 76.7266C245.692 76.4141 245.596 76.0156 245.596 75.5312C245.596 74.7656 245.898 74.1849 246.502 73.7891C247.111 73.388 247.916 73.1875 248.916 73.1875C249.447 73.1875 249.947 73.2422 250.416 73.3516C250.89 73.4557 251.354 73.6094 251.807 73.8125L251.229 75.1953C250.838 75.0234 250.445 74.8828 250.049 74.7734C249.658 74.6589 249.26 74.6016 248.854 74.6016C248.38 74.6016 248.018 74.6745 247.768 74.8203C247.523 74.9661 247.4 75.1745 247.4 75.4453C247.4 75.6484 247.46 75.8203 247.58 75.9609C247.7 76.1016 247.906 76.2422 248.197 76.3828C248.494 76.5234 248.906 76.6979 249.432 76.9062C249.947 77.1042 250.393 77.3125 250.768 77.5312C251.148 77.7448 251.439 78.0078 251.643 78.3203C251.846 78.6328 251.947 79.0365 251.947 79.5312ZM257.377 73.1875C258.148 73.1875 258.809 73.3464 259.361 73.6641C259.913 73.9818 260.338 74.4323 260.635 75.0156C260.932 75.599 261.08 76.2969 261.08 77.1094V78.0938H255.307C255.327 78.9323 255.551 79.5781 255.979 80.0312C256.411 80.4844 257.015 80.7109 257.791 80.7109C258.343 80.7109 258.838 80.6589 259.275 80.5547C259.718 80.4453 260.174 80.2865 260.643 80.0781V81.5703C260.21 81.7734 259.77 81.9219 259.322 82.0156C258.874 82.1094 258.338 82.1562 257.713 82.1562C256.864 82.1562 256.117 81.9922 255.471 81.6641C254.83 81.3307 254.327 80.8359 253.963 80.1797C253.604 79.5234 253.424 78.7083 253.424 77.7344C253.424 76.7656 253.588 75.9427 253.916 75.2656C254.244 74.5885 254.705 74.0729 255.299 73.7188C255.893 73.3646 256.585 73.1875 257.377 73.1875ZM257.377 74.5703C256.799 74.5703 256.33 74.7578 255.971 75.1328C255.617 75.5078 255.408 76.0573 255.346 76.7812H259.283C259.278 76.349 259.205 75.9661 259.064 75.6328C258.929 75.2995 258.721 75.0391 258.439 74.8516C258.163 74.6641 257.809 74.5703 257.377 74.5703ZM271.455 82H269.572V72.1719H266.229V70.5781H274.791V72.1719H271.455V82ZM278.189 73.3516V82H276.354V73.3516H278.189ZM277.283 70.0391C277.564 70.0391 277.807 70.1146 278.01 70.2656C278.218 70.4167 278.322 70.6771 278.322 71.0469C278.322 71.4115 278.218 71.6719 278.01 71.8281C277.807 71.9792 277.564 72.0547 277.283 72.0547C276.992 72.0547 276.744 71.9792 276.541 71.8281C276.343 71.6719 276.244 71.4115 276.244 71.0469C276.244 70.6771 276.343 70.4167 276.541 70.2656C276.744 70.1146 276.992 70.0391 277.283 70.0391ZM290.596 73.1875C291.564 73.1875 292.294 73.4375 292.783 73.9375C293.278 74.4375 293.525 75.2396 293.525 76.3438V82H291.689V76.6719C291.689 76.0156 291.562 75.5208 291.307 75.1875C291.051 74.8542 290.663 74.6875 290.143 74.6875C289.413 74.6875 288.887 74.9219 288.564 75.3906C288.247 75.8542 288.088 76.5286 288.088 77.4141V82H286.252V76.6719C286.252 76.2344 286.195 75.8698 286.08 75.5781C285.971 75.2812 285.801 75.0599 285.572 74.9141C285.343 74.763 285.054 74.6875 284.705 74.6875C284.2 74.6875 283.796 74.8021 283.494 75.0312C283.197 75.2604 282.984 75.599 282.854 76.0469C282.723 76.4896 282.658 77.0339 282.658 77.6797V82H280.822V73.3516H282.252L282.51 74.5156H282.611C282.788 74.2135 283.007 73.9661 283.268 73.7734C283.533 73.5755 283.827 73.4297 284.15 73.3359C284.473 73.237 284.809 73.1875 285.158 73.1875C285.804 73.1875 286.348 73.3021 286.791 73.5312C287.234 73.7552 287.564 74.099 287.783 74.5625H287.924C288.195 74.0938 288.572 73.7474 289.057 73.5234C289.541 73.2995 290.054 73.1875 290.596 73.1875ZM299.533 73.1875C300.304 73.1875 300.965 73.3464 301.518 73.6641C302.07 73.9818 302.494 74.4323 302.791 75.0156C303.088 75.599 303.236 76.2969 303.236 77.1094V78.0938H297.463C297.484 78.9323 297.708 79.5781 298.135 80.0312C298.567 80.4844 299.171 80.7109 299.947 80.7109C300.499 80.7109 300.994 80.6589 301.432 80.5547C301.874 80.4453 302.33 80.2865 302.799 80.0781V81.5703C302.367 81.7734 301.926 81.9219 301.479 82.0156C301.031 82.1094 300.494 82.1562 299.869 82.1562C299.02 82.1562 298.273 81.9922 297.627 81.6641C296.986 81.3307 296.484 80.8359 296.119 80.1797C295.76 79.5234 295.58 78.7083 295.58 77.7344C295.58 76.7656 295.744 75.9427 296.072 75.2656C296.4 74.5885 296.861 74.0729 297.455 73.7188C298.049 73.3646 298.742 73.1875 299.533 73.1875ZM299.533 74.5703C298.955 74.5703 298.486 74.7578 298.127 75.1328C297.773 75.5078 297.564 76.0573 297.502 76.7812H301.439C301.434 76.349 301.361 75.9661 301.221 75.6328C301.085 75.2995 300.877 75.0391 300.596 74.8516C300.32 74.6641 299.965 74.5703 299.533 74.5703Z" fill="#4B7FFB"/>
<defs>
<clipPath id="clip0_141_1711">
<rect x="14" width="40" height="40" rx="20" fill="white"/>
</clipPath>
</defs>
</svg>
