<svg width="304" height="88" viewBox="0 0 304 88" fill="none" xmlns="http://www.w3.org/2000/svg">
<rect x="56.6904" y="19" width="169" height="2" fill="#EAECF0"/>
<rect x="17.5" y="1" width="38" height="38" rx="19" fill="#F4F7F7"/>
<circle cx="36.5" cy="20" r="6" fill="#4B7FFB"/>
<rect x="17.5" y="1" width="38" height="38" rx="19" stroke="#4B7FFB" stroke-width="2"/>
<path d="M5.1875 75.7891L7.89844 70.5781H9.92188L6.125 77.5625V82H4.25781V77.6328L0.453125 70.5781H2.49219L5.1875 75.7891ZM18.8906 77.6562C18.8906 78.375 18.7969 79.013 18.6094 79.5703C18.4219 80.1276 18.1484 80.599 17.7891 80.9844C17.4297 81.3646 16.9974 81.6562 16.4922 81.8594C15.987 82.0573 15.4167 82.1562 14.7812 82.1562C14.1875 82.1562 13.6432 82.0573 13.1484 81.8594C12.6536 81.6562 12.224 81.3646 11.8594 80.9844C11.5 80.599 11.2214 80.1276 11.0234 79.5703C10.8255 79.013 10.7266 78.375 10.7266 77.6562C10.7266 76.7031 10.8906 75.8958 11.2188 75.2344C11.5521 74.5677 12.026 74.0599 12.6406 73.7109C13.2552 73.362 13.987 73.1875 14.8359 73.1875C15.6328 73.1875 16.3359 73.362 16.9453 73.7109C17.5547 74.0599 18.0312 74.5677 18.375 75.2344C18.7188 75.901 18.8906 76.7083 18.8906 77.6562ZM12.6172 77.6562C12.6172 78.2865 12.6927 78.8255 12.8438 79.2734C13 79.7214 13.2396 80.0651 13.5625 80.3047C13.8854 80.5391 14.3021 80.6562 14.8125 80.6562C15.3229 80.6562 15.7396 80.5391 16.0625 80.3047C16.3854 80.0651 16.6224 79.7214 16.7734 79.2734C16.9245 78.8255 17 78.2865 17 77.6562C17 77.026 16.9245 76.4922 16.7734 76.0547C16.6224 75.612 16.3854 75.276 16.0625 75.0469C15.7396 74.8125 15.3203 74.6953 14.8047 74.6953C14.0443 74.6953 13.4896 74.9505 13.1406 75.4609C12.7917 75.9714 12.6172 76.7031 12.6172 77.6562ZM28.5391 73.3516V82H27.0938L26.8438 80.8359H26.7422C26.5599 81.1328 26.3281 81.3802 26.0469 81.5781C25.7656 81.7708 25.4531 81.9141 25.1094 82.0078C24.7656 82.1068 24.4036 82.1562 24.0234 82.1562C23.3724 82.1562 22.8151 82.0469 22.3516 81.8281C21.8932 81.6042 21.5417 81.2604 21.2969 80.7969C21.0521 80.3333 20.9297 79.7344 20.9297 79V73.3516H22.7734V78.6562C22.7734 79.3281 22.9089 79.8307 23.1797 80.1641C23.4557 80.4974 23.8828 80.6641 24.4609 80.6641C25.0182 80.6641 25.4609 80.5495 25.7891 80.3203C26.1172 80.0911 26.349 79.7526 26.4844 79.3047C26.625 78.8568 26.6953 78.3073 26.6953 77.6562V73.3516H28.5391ZM35.5547 73.1875C35.7005 73.1875 35.8594 73.1953 36.0312 73.2109C36.2031 73.2266 36.3516 73.2474 36.4766 73.2734L36.3047 74.9922C36.1953 74.9609 36.0599 74.9375 35.8984 74.9219C35.7422 74.9062 35.6016 74.8984 35.4766 74.8984C35.1484 74.8984 34.8359 74.9531 34.5391 75.0625C34.2422 75.1667 33.9792 75.3281 33.75 75.5469C33.5208 75.7604 33.3411 76.0286 33.2109 76.3516C33.0807 76.6745 33.0156 77.0495 33.0156 77.4766V82H31.1719V73.3516H32.6094L32.8594 74.875H32.9453C33.1172 74.5677 33.3307 74.2865 33.5859 74.0312C33.8411 73.776 34.1328 73.5729 34.4609 73.4219C34.7943 73.2656 35.1589 73.1875 35.5547 73.1875ZM42.4219 82V70.5781H44.2969V82H42.4219ZM51.6328 73.1875C52.6068 73.1875 53.3646 73.4401 53.9062 73.9453C54.4531 74.4453 54.7266 75.25 54.7266 76.3594V82H52.8906V76.7031C52.8906 76.0312 52.7526 75.5286 52.4766 75.1953C52.2005 74.8568 51.7734 74.6875 51.1953 74.6875C50.3568 74.6875 49.7734 74.9453 49.4453 75.4609C49.1224 75.9766 48.9609 76.724 48.9609 77.7031V82H47.125V73.3516H48.5547L48.8125 74.5234H48.9141C49.1016 74.2214 49.3333 73.974 49.6094 73.7812C49.8906 73.5833 50.2031 73.4349 50.5469 73.3359C50.8958 73.237 51.2578 73.1875 51.6328 73.1875ZM61.6172 74.75H59.5156V82H57.6797V74.75H56.2656V73.8672L57.6797 73.3281V72.7266C57.6797 71.9922 57.7943 71.4089 58.0234 70.9766C58.2578 70.5443 58.5911 70.2344 59.0234 70.0469C59.4609 69.8542 59.9818 69.7578 60.5859 69.7578C60.9818 69.7578 61.3438 69.7917 61.6719 69.8594C62 69.9219 62.276 69.9948 62.5 70.0781L62.0234 71.4688C61.8464 71.4115 61.6484 71.3594 61.4297 71.3125C61.2109 71.2604 60.9766 71.2344 60.7266 71.2344C60.3099 71.2344 60.0026 71.3646 59.8047 71.625C59.612 71.8854 59.5156 72.2656 59.5156 72.7656V73.3516H61.6172V74.75ZM70.75 77.6562C70.75 78.375 70.6562 79.013 70.4688 79.5703C70.2812 80.1276 70.0078 80.599 69.6484 80.9844C69.2891 81.3646 68.8568 81.6562 68.3516 81.8594C67.8464 82.0573 67.276 82.1562 66.6406 82.1562C66.0469 82.1562 65.5026 82.0573 65.0078 81.8594C64.513 81.6562 64.0833 81.3646 63.7188 80.9844C63.3594 80.599 63.0807 80.1276 62.8828 79.5703C62.6849 79.013 62.5859 78.375 62.5859 77.6562C62.5859 76.7031 62.75 75.8958 63.0781 75.2344C63.4115 74.5677 63.8854 74.0599 64.5 73.7109C65.1146 73.362 65.8464 73.1875 66.6953 73.1875C67.4922 73.1875 68.1953 73.362 68.8047 73.7109C69.4141 74.0599 69.8906 74.5677 70.2344 75.2344C70.5781 75.901 70.75 76.7083 70.75 77.6562ZM64.4766 77.6562C64.4766 78.2865 64.5521 78.8255 64.7031 79.2734C64.8594 79.7214 65.099 80.0651 65.4219 80.3047C65.7448 80.5391 66.1615 80.6562 66.6719 80.6562C67.1823 80.6562 67.599 80.5391 67.9219 80.3047C68.2448 80.0651 68.4818 79.7214 68.6328 79.2734C68.7839 78.8255 68.8594 78.2865 68.8594 77.6562C68.8594 77.026 68.7839 76.4922 68.6328 76.0547C68.4818 75.612 68.2448 75.276 67.9219 75.0469C67.599 74.8125 67.1797 74.6953 66.6641 74.6953C65.9036 74.6953 65.349 74.9505 65 75.4609C64.651 75.9714 64.4766 76.7031 64.4766 77.6562Z" fill="#4B7FFB"/>
<g clip-path="url(#clip0_141_1604)">
<rect x="234.986" width="40" height="40" rx="20" fill="white"/>
<circle cx="254.986" cy="20" r="6" fill="#EAECF0"/>
<rect x="235.986" y="1" width="38" height="38" rx="19" stroke="#EAECF0" stroke-width="2"/>
</g>
<path d="M213.15 71.5859C212.52 71.5859 211.952 71.6953 211.447 71.9141C210.947 72.1276 210.52 72.4401 210.166 72.8516C209.817 73.2578 209.549 73.75 209.361 74.3281C209.174 74.9062 209.08 75.5573 209.08 76.2812C209.08 77.2396 209.229 78.0729 209.525 78.7812C209.827 79.4844 210.275 80.0286 210.869 80.4141C211.468 80.7995 212.215 80.9922 213.111 80.9922C213.622 80.9922 214.101 80.9505 214.549 80.8672C215.002 80.7786 215.442 80.6693 215.869 80.5391V81.6953C215.452 81.8516 215.015 81.9661 214.557 82.0391C214.098 82.1172 213.554 82.1562 212.924 82.1562C211.762 82.1562 210.791 81.9167 210.01 81.4375C209.234 80.9531 208.65 80.2708 208.26 79.3906C207.874 78.5104 207.682 77.4714 207.682 76.2734C207.682 75.4089 207.801 74.6198 208.041 73.9062C208.286 73.1875 208.64 72.5677 209.104 72.0469C209.572 71.526 210.145 71.125 210.822 70.8438C211.505 70.5573 212.286 70.4141 213.166 70.4141C213.744 70.4141 214.301 70.4714 214.838 70.5859C215.374 70.7005 215.859 70.8646 216.291 71.0781L215.76 72.2031C215.395 72.0365 214.994 71.8932 214.557 71.7734C214.124 71.6484 213.656 71.5859 213.15 71.5859ZM219.447 69.8438V73.4766C219.447 73.6849 219.442 73.8958 219.432 74.1094C219.421 74.3177 219.403 74.5104 219.377 74.6875H219.463C219.64 74.3854 219.864 74.1328 220.135 73.9297C220.411 73.7214 220.723 73.5651 221.072 73.4609C221.421 73.3516 221.791 73.2969 222.182 73.2969C222.869 73.2969 223.442 73.4062 223.9 73.625C224.364 73.8438 224.71 74.1823 224.939 74.6406C225.174 75.099 225.291 75.6927 225.291 76.4219V82H224.01V76.5078C224.01 75.7943 223.846 75.2604 223.518 74.9062C223.195 74.5521 222.697 74.375 222.025 74.375C221.39 74.375 220.882 74.4974 220.502 74.7422C220.127 74.9818 219.856 75.3359 219.689 75.8047C219.528 76.2734 219.447 76.8464 219.447 77.5234V82H218.15V69.8438H219.447ZM235.346 77.7031C235.346 78.4062 235.255 79.0339 235.072 79.5859C234.89 80.138 234.627 80.6042 234.283 80.9844C233.939 81.3646 233.523 81.6562 233.033 81.8594C232.549 82.0573 231.999 82.1562 231.385 82.1562C230.812 82.1562 230.286 82.0573 229.807 81.8594C229.333 81.6562 228.921 81.3646 228.572 80.9844C228.229 80.6042 227.96 80.138 227.768 79.5859C227.58 79.0339 227.486 78.4062 227.486 77.7031C227.486 76.7656 227.645 75.9688 227.963 75.3125C228.281 74.651 228.734 74.1484 229.322 73.8047C229.916 73.4557 230.622 73.2812 231.439 73.2812C232.221 73.2812 232.903 73.4557 233.486 73.8047C234.075 74.1536 234.531 74.6589 234.854 75.3203C235.182 75.9766 235.346 76.7708 235.346 77.7031ZM228.83 77.7031C228.83 78.3906 228.921 78.987 229.104 79.4922C229.286 79.9974 229.567 80.388 229.947 80.6641C230.327 80.9401 230.817 81.0781 231.416 81.0781C232.01 81.0781 232.497 80.9401 232.877 80.6641C233.262 80.388 233.546 79.9974 233.729 79.4922C233.911 78.987 234.002 78.3906 234.002 77.7031C234.002 77.0208 233.911 76.4323 233.729 75.9375C233.546 75.4375 233.265 75.0521 232.885 74.7812C232.505 74.5104 232.012 74.375 231.408 74.375C230.518 74.375 229.864 74.6693 229.447 75.2578C229.036 75.8464 228.83 76.6615 228.83 77.7031ZM244.971 77.7031C244.971 78.4062 244.88 79.0339 244.697 79.5859C244.515 80.138 244.252 80.6042 243.908 80.9844C243.564 81.3646 243.148 81.6562 242.658 81.8594C242.174 82.0573 241.624 82.1562 241.01 82.1562C240.437 82.1562 239.911 82.0573 239.432 81.8594C238.958 81.6562 238.546 81.3646 238.197 80.9844C237.854 80.6042 237.585 80.138 237.393 79.5859C237.205 79.0339 237.111 78.4062 237.111 77.7031C237.111 76.7656 237.27 75.9688 237.588 75.3125C237.906 74.651 238.359 74.1484 238.947 73.8047C239.541 73.4557 240.247 73.2812 241.064 73.2812C241.846 73.2812 242.528 73.4557 243.111 73.8047C243.7 74.1536 244.156 74.6589 244.479 75.3203C244.807 75.9766 244.971 76.7708 244.971 77.7031ZM238.455 77.7031C238.455 78.3906 238.546 78.987 238.729 79.4922C238.911 79.9974 239.192 80.388 239.572 80.6641C239.952 80.9401 240.442 81.0781 241.041 81.0781C241.635 81.0781 242.122 80.9401 242.502 80.6641C242.887 80.388 243.171 79.9974 243.354 79.4922C243.536 78.987 243.627 78.3906 243.627 77.7031C243.627 77.0208 243.536 76.4323 243.354 75.9375C243.171 75.4375 242.89 75.0521 242.51 74.7812C242.13 74.5104 241.637 74.375 241.033 74.375C240.143 74.375 239.489 74.6693 239.072 75.2578C238.661 75.8464 238.455 76.6615 238.455 77.7031ZM252.752 79.6562C252.752 80.2031 252.614 80.6641 252.338 81.0391C252.067 81.4089 251.676 81.6875 251.166 81.875C250.661 82.0625 250.057 82.1562 249.354 82.1562C248.755 82.1562 248.236 82.1094 247.799 82.0156C247.361 81.9219 246.979 81.7891 246.65 81.6172V80.4219C246.999 80.5938 247.416 80.75 247.9 80.8906C248.385 81.0312 248.88 81.1016 249.385 81.1016C250.124 81.1016 250.661 80.9818 250.994 80.7422C251.327 80.5026 251.494 80.1771 251.494 79.7656C251.494 79.5312 251.426 79.3255 251.291 79.1484C251.161 78.9661 250.939 78.7917 250.627 78.625C250.314 78.4531 249.882 78.2656 249.33 78.0625C248.783 77.8542 248.309 77.6484 247.908 77.4453C247.512 77.237 247.205 76.9844 246.986 76.6875C246.773 76.3906 246.666 76.0052 246.666 75.5312C246.666 74.8073 246.958 74.2526 247.541 73.8672C248.13 73.4766 248.9 73.2812 249.854 73.2812C250.369 73.2812 250.851 73.3333 251.299 73.4375C251.752 73.5365 252.174 73.6719 252.564 73.8438L252.127 74.8828C251.773 74.7318 251.395 74.6042 250.994 74.5C250.593 74.3958 250.184 74.3438 249.768 74.3438C249.169 74.3438 248.708 74.4427 248.385 74.6406C248.067 74.8385 247.908 75.1094 247.908 75.4531C247.908 75.7188 247.981 75.9375 248.127 76.1094C248.278 76.2812 248.518 76.4427 248.846 76.5938C249.174 76.7448 249.606 76.9219 250.143 77.125C250.679 77.3229 251.143 77.5286 251.533 77.7422C251.924 77.9505 252.223 78.2057 252.432 78.5078C252.645 78.8047 252.752 79.1875 252.752 79.6562ZM258.135 73.2812C258.864 73.2812 259.489 73.4427 260.01 73.7656C260.531 74.0885 260.929 74.5417 261.205 75.125C261.481 75.7031 261.619 76.3802 261.619 77.1562V77.9609H255.705C255.721 78.9661 255.971 79.7318 256.455 80.2578C256.939 80.7839 257.622 81.0469 258.502 81.0469C259.044 81.0469 259.523 80.9974 259.939 80.8984C260.356 80.7995 260.788 80.6536 261.236 80.4609V81.6016C260.804 81.7943 260.374 81.9349 259.947 82.0234C259.525 82.112 259.025 82.1562 258.447 82.1562C257.624 82.1562 256.906 81.9896 256.291 81.6562C255.682 81.3177 255.208 80.8229 254.869 80.1719C254.531 79.5208 254.361 78.724 254.361 77.7812C254.361 76.8594 254.515 76.0625 254.822 75.3906C255.135 74.7135 255.572 74.1927 256.135 73.8281C256.702 73.4635 257.369 73.2812 258.135 73.2812ZM258.119 74.3438C257.426 74.3438 256.874 74.5703 256.463 75.0234C256.051 75.4766 255.807 76.1094 255.729 76.9219H260.26C260.255 76.4115 260.174 75.9635 260.018 75.5781C259.867 75.1875 259.635 74.8854 259.322 74.6719C259.01 74.4531 258.609 74.3438 258.119 74.3438ZM271.682 82H270.346V71.75H266.752V70.5781H275.26V71.75H271.682V82ZM278.088 73.4375V82H276.791V73.4375H278.088ZM277.455 70.2344C277.669 70.2344 277.851 70.3047 278.002 70.4453C278.158 70.5807 278.236 70.7943 278.236 71.0859C278.236 71.3724 278.158 71.5859 278.002 71.7266C277.851 71.8672 277.669 71.9375 277.455 71.9375C277.231 71.9375 277.044 71.8672 276.893 71.7266C276.747 71.5859 276.674 71.3724 276.674 71.0859C276.674 70.7943 276.747 70.5807 276.893 70.4453C277.044 70.3047 277.231 70.2344 277.455 70.2344ZM290.135 73.2812C291.077 73.2812 291.788 73.5286 292.268 74.0234C292.747 74.513 292.986 75.3021 292.986 76.3906V82H291.705V76.4531C291.705 75.7604 291.554 75.2422 291.252 74.8984C290.955 74.5495 290.512 74.375 289.924 74.375C289.096 74.375 288.494 74.6146 288.119 75.0938C287.744 75.5729 287.557 76.2786 287.557 77.2109V82H286.268V76.4531C286.268 75.9896 286.2 75.6042 286.064 75.2969C285.934 74.9896 285.736 74.7604 285.471 74.6094C285.21 74.4531 284.88 74.375 284.479 74.375C283.911 74.375 283.455 74.4922 283.111 74.7266C282.768 74.9609 282.518 75.3099 282.361 75.7734C282.21 76.2318 282.135 76.7969 282.135 77.4688V82H280.838V73.4375H281.885L282.08 74.6484H282.15C282.322 74.3516 282.538 74.1016 282.799 73.8984C283.059 73.6953 283.351 73.5417 283.674 73.4375C283.997 73.3333 284.34 73.2812 284.705 73.2812C285.356 73.2812 285.9 73.4036 286.338 73.6484C286.781 73.888 287.101 74.2552 287.299 74.75H287.369C287.65 74.2552 288.036 73.888 288.525 73.6484C289.015 73.4036 289.551 73.2812 290.135 73.2812ZM298.947 73.2812C299.676 73.2812 300.301 73.4427 300.822 73.7656C301.343 74.0885 301.742 74.5417 302.018 75.125C302.294 75.7031 302.432 76.3802 302.432 77.1562V77.9609H296.518C296.533 78.9661 296.783 79.7318 297.268 80.2578C297.752 80.7839 298.434 81.0469 299.314 81.0469C299.856 81.0469 300.335 80.9974 300.752 80.8984C301.169 80.7995 301.601 80.6536 302.049 80.4609V81.6016C301.617 81.7943 301.187 81.9349 300.76 82.0234C300.338 82.112 299.838 82.1562 299.26 82.1562C298.437 82.1562 297.718 81.9896 297.104 81.6562C296.494 81.3177 296.02 80.8229 295.682 80.1719C295.343 79.5208 295.174 78.724 295.174 77.7812C295.174 76.8594 295.327 76.0625 295.635 75.3906C295.947 74.7135 296.385 74.1927 296.947 73.8281C297.515 73.4635 298.182 73.2812 298.947 73.2812ZM298.932 74.3438C298.239 74.3438 297.687 74.5703 297.275 75.0234C296.864 75.4766 296.619 76.1094 296.541 76.9219H301.072C301.067 76.4115 300.986 75.9635 300.83 75.5781C300.679 75.1875 300.447 74.8854 300.135 74.6719C299.822 74.4531 299.421 74.3438 298.932 74.3438Z" fill="#272D2C"/>
<defs>
<clipPath id="clip0_141_1604">
<rect x="234.986" width="40" height="40" rx="20" fill="white"/>
</clipPath>
</defs>
</svg>
