<svg width="283" height="62" viewBox="0 0 283 62" fill="none" xmlns="http://www.w3.org/2000/svg">
<path d="M58.1162 40.7936V13.3416H75.2582V16.2905H61.5557V25.5663H74.3706V28.5152H61.5557V37.8446H75.4801V40.7936H58.1162Z" fill="#201E62"/>
<path d="M84.2868 28.408V40.7936H81.0138V20.2046H84.1759V23.4216H84.4532C84.9525 22.3761 85.7107 21.5361 86.7277 20.9016C87.7448 20.2582 89.0577 19.9365 90.6665 19.9365C92.1089 19.9365 93.3709 20.2224 94.4527 20.7943C95.5345 21.3573 96.3759 22.2152 96.9769 23.368C97.5778 24.5118 97.8783 25.9595 97.8783 27.711V40.7936H94.6053V27.9254C94.6053 26.308 94.1707 25.048 93.3016 24.1454C92.4325 23.2339 91.2398 22.7782 89.7234 22.7782C88.6786 22.7782 87.7448 22.9971 86.9219 23.435C86.1083 23.8729 85.4657 24.5118 84.9941 25.3518C84.5226 26.1918 84.2868 27.2105 84.2868 28.408Z" fill="#201E62"/>
<path d="M120.516 20.2046L112.638 40.7936H109.31L101.432 20.2046H104.983L110.863 36.6114H111.085L116.965 20.2046H120.516Z" fill="#201E62"/>
<path d="M132.727 41.2225C130.804 41.2225 129.117 40.7802 127.665 39.8955C126.223 39.0108 125.095 37.7731 124.281 36.1825C123.477 34.5918 123.075 32.7331 123.075 30.6063C123.075 28.4616 123.477 26.5895 124.281 24.9899C125.095 23.3903 126.223 22.1482 127.665 21.2635C129.117 20.3788 130.804 19.9365 132.727 19.9365C134.651 19.9365 136.333 20.3788 137.776 21.2635C139.227 22.1482 140.355 23.3903 141.16 24.9899C141.973 26.5895 142.38 28.4616 142.38 30.6063C142.38 32.7331 141.973 34.5918 141.16 36.1825C140.355 37.7731 139.227 39.0108 137.776 39.8955C136.333 40.7802 134.651 41.2225 132.727 41.2225ZM132.727 38.3808C134.188 38.3808 135.39 38.0189 136.333 37.295C137.276 36.5712 137.974 35.6195 138.428 34.4399C138.881 33.2604 139.107 31.9825 139.107 30.6063C139.107 29.2301 138.881 27.9478 138.428 26.7593C137.974 25.5707 137.276 24.6101 136.333 23.8773C135.39 23.1446 134.188 22.7782 132.727 22.7782C131.267 22.7782 130.065 23.1446 129.121 23.8773C128.178 24.6101 127.48 25.5707 127.027 26.7593C126.574 27.9478 126.348 29.2301 126.348 30.6063C126.348 31.9825 126.574 33.2604 127.027 34.4399C127.48 35.6195 128.178 36.5712 129.121 37.295C130.065 38.0189 131.267 38.3808 132.727 38.3808Z" fill="#201E62"/>
<path d="M148.722 48.5145C148.167 48.5145 147.672 48.4698 147.238 48.3804C146.803 48.3 146.503 48.2196 146.336 48.1391L147.168 45.351C147.964 45.5476 148.666 45.6191 149.276 45.5655C149.887 45.5119 150.428 45.2483 150.899 44.7746C151.38 44.31 151.819 43.5549 152.217 42.5093L152.827 40.9008L144.949 20.2046H148.5L154.38 36.6114H154.602L160.483 20.2046H164.033L154.99 43.7961C154.584 44.8595 154.08 45.7398 153.479 46.4368C152.878 47.1427 152.18 47.6655 151.385 48.0051C150.599 48.3447 149.711 48.5145 148.722 48.5145Z" fill="#201E62"/>
<path d="M168.797 40.7936V13.3416H172.236V25.5663H187.381V13.3416H190.821V40.7936H187.381V28.5152H172.236V40.7936H168.797Z" fill="#201E62"/>
<path d="M206.194 41.2225C204.142 41.2225 202.371 40.7846 200.883 39.9089C199.403 39.0242 198.261 37.791 197.457 36.2093C196.662 34.6187 196.264 32.7689 196.264 30.6599C196.264 28.551 196.662 26.6922 197.457 25.0837C198.261 23.4663 199.38 22.2063 200.813 21.3037C202.256 20.3922 203.938 19.9365 205.862 19.9365C206.971 19.9365 208.067 20.1152 209.148 20.4726C210.23 20.8301 211.215 21.4109 212.103 22.2152C212.99 23.0105 213.697 24.065 214.225 25.3786C214.752 26.6922 215.015 28.3097 215.015 30.231V31.5714H198.594V28.8369H211.686C211.686 27.6752 211.446 26.6386 210.965 25.7271C210.494 24.8156 209.819 24.0963 208.94 23.569C208.071 23.0418 207.045 22.7782 205.862 22.7782C204.558 22.7782 203.43 23.091 202.478 23.7165C201.534 24.3331 200.809 25.1373 200.3 26.1293C199.792 27.1212 199.537 28.1846 199.537 29.3195V31.1425C199.537 32.6974 199.815 34.0155 200.369 35.0967C200.933 36.1691 201.715 36.9867 202.713 37.5497C203.712 38.1038 204.872 38.3808 206.194 38.3808C207.054 38.3808 207.831 38.2646 208.524 38.0323C209.227 37.791 209.833 37.4336 210.341 36.9599C210.85 36.4774 211.243 35.8787 211.52 35.1638L214.682 36.0216C214.349 37.0582 213.79 37.9697 213.004 38.7561C212.218 39.5336 211.247 40.1412 210.092 40.5791C208.936 41.008 207.637 41.2225 206.194 41.2225Z" fill="#201E62"/>
<path d="M226.263 41.2761C224.913 41.2761 223.688 41.0304 222.587 40.5389C221.487 40.0385 220.613 39.3191 219.966 38.3808C219.319 37.4336 218.995 36.2897 218.995 34.9493C218.995 33.7697 219.236 32.8135 219.717 32.0808C220.197 31.3391 220.84 30.7582 221.644 30.3382C222.449 29.9182 223.336 29.6054 224.307 29.3999C225.287 29.1854 226.272 29.0157 227.261 28.8905C228.556 28.7297 229.605 28.6091 230.41 28.5286C231.223 28.4393 231.815 28.2918 232.185 28.0863C232.564 27.8808 232.753 27.5233 232.753 27.0139V26.9067C232.753 25.5842 232.379 24.5565 231.63 23.8237C230.89 23.091 229.767 22.7246 228.26 22.7246C226.697 22.7246 225.472 23.0552 224.585 23.7165C223.697 24.3778 223.073 25.0837 222.712 25.8344L219.606 24.762C220.16 23.511 220.9 22.5369 221.825 21.8399C222.758 21.1339 223.776 20.6424 224.876 20.3654C225.985 20.0795 227.076 19.9365 228.149 19.9365C228.833 19.9365 229.619 20.0169 230.507 20.1777C231.403 20.3297 232.268 20.6469 233.1 21.1295C233.941 21.612 234.64 22.3403 235.194 23.3144C235.749 24.2884 236.026 25.5931 236.026 27.2284V40.7936H232.753V38.0055H232.587C232.365 38.4523 231.995 38.9304 231.477 39.4397C230.96 39.9491 230.271 40.3825 229.411 40.74C228.551 41.0974 227.502 41.2761 226.263 41.2761ZM226.762 38.4344C228.056 38.4344 229.147 38.1887 230.035 37.6972C230.932 37.2057 231.607 36.5712 232.06 35.7938C232.522 35.0163 232.753 34.1987 232.753 33.3408V30.4454C232.615 30.6063 232.31 30.7537 231.838 30.8878C231.376 31.0129 230.839 31.1246 230.229 31.2229C229.628 31.3123 229.041 31.3927 228.468 31.4642C227.904 31.5267 227.446 31.5803 227.095 31.625C226.244 31.7323 225.449 31.9065 224.709 32.1478C223.979 32.3801 223.387 32.7331 222.934 33.2067C222.49 33.6714 222.268 34.3059 222.268 35.1101C222.268 36.2093 222.689 37.0404 223.531 37.6033C224.381 38.1574 225.458 38.4344 226.762 38.4344Z" fill="#201E62"/>
<path d="M245.273 13.3416V40.7936H242V13.3416H245.273Z" fill="#201E62"/>
<path d="M260.533 20.2046V22.8854H249.493V20.2046H260.533ZM252.711 15.2718H255.984V34.8957C255.984 35.7893 256.118 36.4595 256.386 36.9063C256.663 37.3442 257.015 37.6391 257.44 37.791C257.875 37.934 258.332 38.0055 258.813 38.0055C259.174 38.0055 259.469 37.9876 259.701 37.9519C259.932 37.9072 260.117 37.8714 260.255 37.8446L260.921 40.6863C260.699 40.7668 260.389 40.8472 259.992 40.9276C259.594 41.017 259.09 41.0617 258.48 41.0617C257.556 41.0617 256.649 40.8695 255.762 40.4853C254.883 40.101 254.153 39.5157 253.571 38.7293C252.997 37.9429 252.711 36.951 252.711 35.7536V15.2718Z" fill="#201E62"/>
<path d="M269.187 28.408V40.7936H265.914V13.3416H269.187V23.4216H269.464C269.964 22.3582 270.713 21.5137 271.711 20.8882C272.719 20.2537 274.06 19.9365 275.733 19.9365C277.185 19.9365 278.456 20.218 279.547 20.7809C280.638 21.335 281.484 22.1884 282.085 23.3412C282.695 24.485 283 25.9416 283 27.711V40.7936H279.727V27.9254C279.727 26.2901 279.288 25.0256 278.41 24.132C277.541 23.2295 276.334 22.7782 274.79 22.7782C273.717 22.7782 272.756 22.9971 271.905 23.435C271.064 23.8729 270.398 24.5118 269.908 25.3518C269.427 26.1918 269.187 27.2105 269.187 28.408Z" fill="#201E62"/>
<path d="M41.6933 22.1354V22.7442C41.6933 23.634 41.4565 24.4692 41.0285 25.199C40.5674 25.9249 39.9026 26.5571 39.0675 27.0137L37.9167 27.6381C37.3766 27.8098 36.7991 27.8957 36.205 27.8957H6.75291C3.72003 27.8957 1.26465 25.5892 1.26465 22.7442V22.1354C1.26465 19.2864 3.72419 16.98 6.75291 16.98H36.205C37.1398 16.98 38.0164 17.2024 38.7892 17.5888C38.8017 17.5888 38.81 17.5966 38.8224 17.6044C39.5952 18.0376 40.2682 18.662 40.7543 19.4504L41.0742 19.9772C41.2861 20.3167 41.4481 20.6719 41.5645 21.0387C41.6476 21.3861 41.6933 21.7529 41.6933 22.1354Z" fill="#4B7FFB"/>
<path d="M41.6933 39.1135V39.7221C41.6933 40.6116 41.4565 41.4465 41.0285 42.176C40.5674 42.9056 39.9068 43.5376 39.0675 43.994L38.0912 44.5636L38.0787 44.5675C37.4929 44.7704 36.8656 44.8757 36.205 44.8757H6.75291C3.72003 44.8757 1.26465 42.5661 1.26465 39.7221V39.1135C1.26465 36.2656 3.72419 33.96 6.75291 33.96H36.205C37.1398 33.96 38.0164 34.1823 38.7892 34.5686C38.8017 34.5725 38.81 34.5803 38.8224 34.5842C39.5952 35.0211 40.2682 35.6453 40.7543 36.4294L41.0742 36.9561C41.2861 37.2955 41.4481 37.6505 41.5645 38.0173C41.6476 38.3684 41.6933 38.7351 41.6933 39.1135Z" fill="#4B7FFB"/>
<path d="M40.9028 25.5562C40.4368 26.3037 39.7651 26.9548 38.9213 27.425L37.7584 28.068L27.9097 33.5134L8.64894 44.1631C8.12418 44.4484 7.57423 44.6494 7.01169 44.7619C4.72793 45.2241 2.30144 44.2595 1.07141 42.222L0.743956 41.6795C-0.788343 39.1396 0.122639 35.8925 2.77582 34.4256L13.7916 28.3372L33.0482 17.6915C33.5729 17.4062 34.1229 17.2052 34.6854 17.0927C36.0498 16.8194 37.4603 17.0485 38.6442 17.7196C38.6568 17.7196 38.6652 17.7277 38.6778 17.7357C39.4586 18.1818 40.1387 18.8248 40.6299 19.6366L40.9531 20.1791C41.1672 20.5288 41.331 20.8945 41.4485 21.2722C41.9145 22.719 41.7004 24.2783 40.9028 25.5562Z" fill="#4DA9FF"/>
<path d="M38.922 10.4513L8.64911 27.1826C5.99587 28.6496 2.60376 27.7815 1.07143 25.2374L0.74397 24.6989C-0.788358 22.1588 0.122641 18.9114 2.77588 17.4445L33.0488 0.713108C35.7021 -0.753849 39.0942 0.114267 40.6265 2.65833L40.9498 3.19689C42.4779 5.73693 41.5711 8.98434 38.922 10.4513Z" fill="#4DA9FF"/>
<path d="M40.8996 41.6235C40.4303 42.401 39.7581 43.0745 38.9041 43.5609L37.9106 44.1679L37.8979 44.1721L9.97348 61.118C7.30153 62.6355 3.88549 61.7375 2.34236 59.1058L2.01682 58.5445C0.469455 55.9211 1.38688 52.5619 4.05883 51.0444L14.8396 44.5005L32.9852 33.4832C33.5137 33.188 34.0675 32.9801 34.634 32.8637C36.0081 32.581 37.4328 32.818 38.6208 33.5123C38.6335 33.5164 38.642 33.5247 38.6546 33.5289C39.441 33.9945 40.1259 34.6597 40.6206 35.4954L40.9461 36.0567C41.1617 36.4184 41.3266 36.7967 41.445 37.1875C41.9185 38.6925 41.7029 40.3056 40.8996 41.6235Z" fill="#4DA9FF"/>
</svg>
