<svg width="21" height="24" viewBox="0 0 21 24" fill="none" xmlns="http://www.w3.org/2000/svg">
<path d="M17.0368 12.7261C17.0705 16.3512 20.217 17.5576 20.2519 17.573C20.2252 17.658 19.7491 19.292 18.5942 20.9799C17.5958 22.4392 16.5595 23.893 14.9271 23.9231C13.3233 23.9527 12.8075 22.972 10.9738 22.972C9.14054 22.972 8.56751 23.893 7.04919 23.9527C5.47357 24.0123 4.27372 22.3748 3.26709 20.9208C1.20995 17.9469 -0.362091 12.517 1.74877 8.85181C2.79738 7.03162 4.67143 5.87909 6.70541 5.84952C8.25261 5.82004 9.71303 6.89044 10.6589 6.89044C11.6041 6.89044 13.3788 5.6032 15.2445 5.79223C16.0254 5.82476 18.2179 6.10766 19.6256 8.16831C19.5121 8.23863 17.0096 9.69547 17.0368 12.7262M14.0225 3.82469C14.8591 2.81211 15.4221 1.40259 15.2685 0C14.0627 0.0484571 12.6047 0.803505 11.7398 1.81547C10.9647 2.7117 10.2859 4.14606 10.4691 5.52084C11.8131 5.62484 13.1859 4.83787 14.0225 3.82469Z" fill="black"/>
</svg>
