<svg width="80" height="80" viewBox="0 0 80 80" fill="none" xmlns="http://www.w3.org/2000/svg">
<circle cx="40" cy="40" r="40" fill="#4DA9FF" fill-opacity="0.1"/>
<path d="M55.7832 50.0199C55.7832 50.5899 55.6566 51.1757 55.3874 51.7457C55.1182 52.3157 54.7699 52.8541 54.3107 53.3607C53.5349 54.2157 52.6799 54.8332 51.7141 55.2291C50.7641 55.6249 49.7349 55.8307 48.6266 55.8307C47.0116 55.8307 45.2857 55.4507 43.4649 54.6749C41.6441 53.8991 39.8232 52.8541 38.0182 51.5399C36.1974 50.2099 34.4716 48.7374 32.8249 47.1066C31.1941 45.4599 29.7216 43.7341 28.4074 41.9291C27.1091 40.1241 26.0641 38.3191 25.3041 36.5299C24.5441 34.7249 24.1641 32.9991 24.1641 31.3524C24.1641 30.2757 24.3541 29.2466 24.7341 28.2966C25.1141 27.3307 25.7157 26.4441 26.5549 25.6524C27.5682 24.6549 28.6766 24.1641 29.8482 24.1641C30.2916 24.1641 30.7349 24.2591 31.1307 24.4491C31.5424 24.6391 31.9066 24.9241 32.1916 25.3357L35.8649 30.5132C36.1499 30.9091 36.3557 31.2732 36.4982 31.6216C36.6407 31.9541 36.7199 32.2866 36.7199 32.5874C36.7199 32.9674 36.6091 33.3474 36.3874 33.7116C36.1816 34.0757 35.8807 34.4557 35.5007 34.8357L34.2974 36.0866C34.1232 36.2607 34.0441 36.4666 34.0441 36.7199C34.0441 36.8466 34.0599 36.9574 34.0916 37.0841C34.1391 37.2107 34.1866 37.3057 34.2182 37.4007C34.5032 37.9232 34.9941 38.6041 35.6907 39.4274C36.4032 40.2507 37.1632 41.0899 37.9866 41.9291C38.8416 42.7682 39.6649 43.5441 40.5041 44.2566C41.3274 44.9532 42.0082 45.4282 42.5466 45.7132C42.6257 45.7449 42.7207 45.7924 42.8316 45.8399C42.9582 45.8874 43.0849 45.9032 43.2274 45.9032C43.4966 45.9032 43.7024 45.8082 43.8766 45.6341L45.0799 44.4466C45.4757 44.0507 45.8557 43.7499 46.2199 43.5599C46.5841 43.3382 46.9482 43.2274 47.3441 43.2274C47.6449 43.2274 47.9616 43.2907 48.3099 43.4332C48.6582 43.5757 49.0224 43.7816 49.4182 44.0507L54.6591 47.7716C55.0707 48.0566 55.3557 48.3891 55.5299 48.7849C55.6882 49.1807 55.7832 49.5766 55.7832 50.0199Z" stroke="#201E62" stroke-width="1.5" stroke-miterlimit="10"/>
<path d="M50.2917 35.2448C50.2917 34.2948 49.5475 32.8381 48.4392 31.6506C47.4258 30.5581 46.08 29.7031 44.75 29.7031" stroke="#201E62" stroke-width="1.5" stroke-linecap="round" stroke-linejoin="round"/>
<path d="M55.8333 35.2474C55.8333 29.1199 50.8775 24.1641 44.75 24.1641" stroke="#201E62" stroke-width="1.5" stroke-linecap="round" stroke-linejoin="round"/>
</svg>
