<svg width="26" height="26" viewBox="0 0 26 26" fill="none" xmlns="http://www.w3.org/2000/svg">
<path d="M12.8485 2.55293C16.2564 2.55293 16.6606 2.56543 18.0072 2.62585C21.4661 2.78001 23.0817 4.3873 23.2392 7.7498C23.3008 9.06751 23.3126 9.46335 23.3126 12.8008C23.3126 16.1394 23.2998 16.5342 23.2392 17.8519C23.0807 21.2113 21.4693 22.8217 18.0072 22.9758C16.6606 23.0363 16.2585 23.0488 12.8485 23.0488C9.44067 23.0488 9.03649 23.0363 7.69099 22.9758C4.22355 22.8206 2.6164 21.2061 2.45899 17.8508C2.3973 16.5331 2.38453 16.1383 2.38453 12.7998C2.38453 9.4623 2.39836 9.06751 2.45899 7.74876C2.61747 4.3873 4.22887 2.77897 7.69099 2.6248C9.03755 2.56543 9.44067 2.55293 12.8485 2.55293ZM12.8485 0.299805C9.38217 0.299805 8.9482 0.314388 7.58676 0.374805C2.95145 0.583138 0.375332 3.10189 0.162606 7.64564C0.0998518 8.98001 0.0849609 9.40501 0.0849609 12.7998C0.0849609 16.1946 0.0998518 16.6206 0.161542 17.954C0.374269 22.4936 2.94613 25.0165 7.58569 25.2248C8.9482 25.2852 9.38217 25.2998 12.8485 25.2998C16.3149 25.2998 16.7499 25.2852 18.1114 25.2248C22.7424 25.0165 25.3249 22.4977 25.5345 17.954C25.5972 16.6206 25.6121 16.1946 25.6121 12.7998C25.6121 9.40501 25.5972 8.98001 25.5355 7.64668C25.3271 3.11126 22.752 0.58418 18.1125 0.375846C16.7499 0.314388 16.3149 0.299805 12.8485 0.299805V0.299805ZM12.8485 6.38105C9.229 6.38105 6.29444 9.25501 6.29444 12.7998C6.29444 16.3446 9.229 19.2196 12.8485 19.2196C16.4681 19.2196 19.4026 16.3456 19.4026 12.7998C19.4026 9.25501 16.4681 6.38105 12.8485 6.38105ZM12.8485 16.9665C10.499 16.9665 8.59402 15.1019 8.59402 12.7998C8.59402 10.4988 10.499 8.63314 12.8485 8.63314C15.1981 8.63314 17.1031 10.4988 17.1031 12.7998C17.1031 15.1019 15.1981 16.9665 12.8485 16.9665ZM19.6622 4.62793C18.8155 4.62793 18.1295 5.2998 18.1295 6.12793C18.1295 6.95605 18.8155 7.62793 19.6622 7.62793C20.5078 7.62793 21.1927 6.95605 21.1927 6.12793C21.1927 5.2998 20.5078 4.62793 19.6622 4.62793Z" fill="#ADBAC0"/>
</svg>
