<svg width="26" height="26" viewBox="0 0 26 26" fill="none" xmlns="http://www.w3.org/2000/svg">
<path d="M3.61648 6.31939C5.27592 6.31939 6.62115 4.97186 6.62115 3.3096C6.62115 1.64734 5.27592 0.299805 3.61648 0.299805C1.95705 0.299805 0.611816 1.64734 0.611816 3.3096C0.611816 4.97186 1.95705 6.31939 3.61648 6.31939Z" fill="#ADBAC0"/>
<path d="M9.45829 8.60012V25.2984H14.6341V17.0408C14.6341 14.8618 15.0433 12.7517 17.7404 12.7517C20.4003 12.7517 20.4333 15.2429 20.4333 17.1783V25.2998H25.6118V16.1425C25.6118 11.6443 24.645 8.18745 19.3965 8.18745C16.8766 8.18745 15.1875 9.57267 14.4967 10.8836H14.4267V8.60012H9.45829ZM1.02379 8.60012H6.20781V25.2984H1.02379V8.60012Z" fill="#ADBAC0"/>
</svg>
