<svg width="16" height="20" viewBox="0 0 16 20" fill="none" xmlns="http://www.w3.org/2000/svg">
<path d="M7.56251 0.375C5.55753 0.377365 3.63536 1.17489 2.21763 2.59262C0.799894 4.01035 0.00237337 5.93253 8.04573e-06 7.9375C-0.00239332 9.57597 0.532807 11.17 1.52351 12.475C1.52351 12.475 1.72976 12.7466 1.76345 12.7858L7.56251 19.625L13.3643 12.7823C13.3946 12.7459 13.6015 12.475 13.6015 12.475L13.6022 12.4729C14.5924 11.1685 15.1274 9.57521 15.125 7.9375C15.1226 5.93253 14.3251 4.01035 12.9074 2.59262C11.4897 1.17489 9.56748 0.377365 7.56251 0.375ZM7.56251 10.6875C7.01861 10.6875 6.48693 10.5262 6.03469 10.224C5.58245 9.92187 5.22998 9.49238 5.02184 8.98988C4.8137 8.48738 4.75924 7.93445 4.86535 7.401C4.97146 6.86755 5.23337 6.37755 5.61796 5.99296C6.00256 5.60836 6.49256 5.34645 7.02601 5.24034C7.55946 5.13423 8.11239 5.18869 8.61489 5.39683C9.11738 5.60497 9.54688 5.95745 9.84905 6.40968C10.1512 6.86192 10.3125 7.3936 10.3125 7.9375C10.3116 8.66657 10.0216 9.36551 9.50605 9.88104C8.99052 10.3966 8.29157 10.6866 7.56251 10.6875Z" fill="#111113" fill-opacity="0.4"/>
</svg>
