<svg width="20" height="12" viewBox="0 0 20 12" fill="none" xmlns="http://www.w3.org/2000/svg">
<path d="M1.62467 12H18.2913C18.8643 12 19.333 11.55 19.333 11C19.333 10.45 18.8643 10 18.2913 10H1.62467C1.05176 10 0.583008 10.45 0.583008 11C0.583008 11.55 1.05176 12 1.62467 12ZM1.62467 7H18.2913C18.8643 7 19.333 6.55 19.333 6C19.333 5.45 18.8643 5 18.2913 5H1.62467C1.05176 5 0.583008 5.45 0.583008 6C0.583008 6.55 1.05176 7 1.62467 7ZM0.583008 1C0.583008 1.55 1.05176 2 1.62467 2H18.2913C18.8643 2 19.333 1.55 19.333 1C19.333 0.45 18.8643 0 18.2913 0H1.62467C1.05176 0 0.583008 0.45 0.583008 1Z" fill="#201E62"/>
</svg>
