<svg width="18" height="21" viewBox="0 0 18 21" fill="none" xmlns="http://www.w3.org/2000/svg">
<path d="M14.4228 13.9529C13.4645 13.9529 12.6012 14.3667 12.002 15.025L6.61244 11.687C6.75633 11.3186 6.83614 10.9185 6.83614 10.5C6.83614 10.0813 6.75633 9.68119 6.61244 9.313L12.002 5.97484C12.6012 6.6331 13.4645 7.04707 14.4228 7.04707C16.2279 7.04707 17.6964 5.57857 17.6964 3.77346C17.6964 1.96835 16.2279 0.5 14.4228 0.5C12.6177 0.5 11.1492 1.9685 11.1492 3.77361C11.1492 4.19216 11.2291 4.59225 11.3729 4.96059L5.98348 8.2986C5.38427 7.64034 4.52093 7.22637 3.56268 7.22637C1.75757 7.22637 0.289062 8.69502 0.289062 10.5C0.289062 12.3051 1.75757 13.7736 3.56268 13.7736C4.52093 13.7736 5.38427 13.3598 5.98348 12.7014L11.3729 16.0394C11.2291 16.4077 11.1492 16.8078 11.1492 17.2265C11.1492 19.0315 12.6177 20.5 14.4228 20.5C16.2279 20.5 17.6964 19.0315 17.6964 17.2265C17.6964 15.4214 16.2279 13.9529 14.4228 13.9529ZM12.3429 3.77361C12.3429 2.62677 13.2759 1.69369 14.4228 1.69369C15.5696 1.69369 16.5027 2.62677 16.5027 3.77361C16.5027 4.92046 15.5696 5.85353 14.4228 5.85353C13.2759 5.85353 12.3429 4.92046 12.3429 3.77361ZM3.56268 12.5799C2.41568 12.5799 1.4826 11.6468 1.4826 10.5C1.4826 9.35313 2.41568 8.42006 3.56268 8.42006C4.70952 8.42006 5.64244 9.35313 5.64244 10.5C5.64244 11.6468 4.70952 12.5799 3.56268 12.5799ZM12.3429 17.2263C12.3429 16.0795 13.2759 15.1464 14.4228 15.1464C15.5696 15.1464 16.5027 16.0795 16.5027 17.2263C16.5027 18.3732 15.5696 19.3063 14.4228 19.3063C13.2759 19.3063 12.3429 18.3732 12.3429 17.2263Z" fill="#4B7FFB"/>
</svg>
