<svg width="30" height="23" viewBox="0 0 30 23" fill="none" xmlns="http://www.w3.org/2000/svg">
<path d="M28.4453 3.28922C28.0021 3.47754 27.5464 3.63649 27.0808 3.76553C27.6321 3.16828 28.0524 2.46554 28.3089 1.69653C28.3664 1.52415 28.3068 1.33548 28.1589 1.22274C28.0112 1.10992 27.806 1.0964 27.6433 1.18874C26.6545 1.75058 25.5876 2.15436 24.469 2.39047C23.3421 1.33565 21.8117 0.735352 20.2295 0.735352C16.8898 0.735352 14.1727 3.33822 14.1727 6.53754C14.1727 6.78952 14.1893 7.0401 14.2223 7.2872C10.078 6.93861 6.22511 4.98723 3.57936 1.87814C3.48507 1.76732 3.33981 1.7076 3.1911 1.71902C3.04229 1.73018 2.90859 1.81057 2.83342 1.93412C2.2968 2.81621 2.01311 3.82508 2.01311 4.85156C2.01311 6.24964 2.53416 7.57614 3.45458 8.61265C3.17472 8.51979 2.90313 8.40374 2.64393 8.2659C2.50477 8.1917 2.33494 8.19283 2.19669 8.26878C2.05835 8.34472 1.97161 8.48439 1.96797 8.63706C1.96733 8.66278 1.96733 8.6885 1.96733 8.71457C1.96733 10.8015 3.13977 12.6803 4.93227 13.7043C4.77828 13.6896 4.62437 13.6682 4.47147 13.6403C4.31384 13.6114 4.15174 13.6643 4.04544 13.7795C3.93895 13.8946 3.90373 14.055 3.95279 14.2015C4.61627 16.1859 6.3245 17.6456 8.38959 18.0906C6.67681 19.1183 4.71812 19.6566 2.66195 19.6566C2.23291 19.6566 1.80142 19.6324 1.37912 19.5846C1.16933 19.5607 0.968737 19.6793 0.897292 19.8705C0.825846 20.0617 0.901569 20.2748 1.08005 20.3844C3.72152 22.0069 6.77584 22.8645 9.91261 22.8645C16.0791 22.8645 19.9367 20.0788 22.0869 17.7419C24.7681 14.8279 26.3059 10.9709 26.3059 7.15999C26.3059 7.00078 26.3034 6.84 26.2983 6.67975C27.3561 5.91623 28.2669 4.9922 29.008 3.93014C29.1206 3.76884 29.1084 3.55567 28.978 3.40718C28.8477 3.25861 28.6307 3.21057 28.4453 3.28922Z" fill="#ADBAC0"/>
</svg>
